<svg xmlns="http://www.w3.org/2000/svg" xml:space="preserve" width="1500" height="1500" data-id="lg_NM1r7ezKWVNrSG5xFL" data-version="1"><path fill="#0074d9" stroke="transparent" d="M0 0h1500v1500H0z"/><g data-padding="20"><g transform="translate(-798.117 -786.78)scale(1.95708)"><path fill="#fffdfd" d="M807.675 559.701q-.99-1.48-2.72-4.71-1.74-3.22-.74-4.21.99-.99 3.22.5 2.23 1.48 2.72 1.98 8.92 6.44 16.6 17.84 7.69 11.4 13.88 25.03 6.2 13.63 11.15 28.49 4.96 14.87 7.93 28.25 7.43 32.71 12.64 64.43 5.2 31.71 5.2 65.41 0 .99.25 5.95.25 4.95-1.74 5.95-1.48-1-3.22-4.96-1.73-3.97-2.23-5.45-5.94-18.34-10.65-41.88t-8.67-42.87q-2.98-14.86-5.46-28.49-2.47-13.63-5.7-26.51-3.22-12.89-7.43-26.02t-10.16-27.51q-.99-1.98-3.22-6.93-2.23-4.96-4.71-9.92-2.48-4.95-4.46-9.16-1.98-4.22-2.48-5.21m118.94 367.22q-5.45-2.97-7.43-3.71-1.98-.75-7.43-4.22-11.9-6.93-21.81-18.08t-17.84-24.54q-7.93-13.38-14.12-28.49-6.2-15.12-10.66-29.98-9.91 6.44-23.54 7.68t-25.03 1.24q-14.37 0-28.49-.99-14.13-.99-28.5-.99-13.87 25.77-26.01 49.8-12.15 24.04-19.08 44.85 0 .5-.5 2.23t-1.49 1.73q-1.48 0-1.48-3.46v-4.46q0-19.83 9.66-44.36t21.56-48.32l-7.44-.49q-2.97 6.94-8.17 19.32-5.21 12.39-9.91 25.77-4.71 13.39-8.43 25.77-3.72 12.39-3.72 19.83 0 1.48-1.48 1.48-1.98 0-2.98-3.22-.99-3.22-1.73-7.18-.74-3.97-.99-8.18t-.25-5.7q0-17.34 4.46-36.42t11.89-34.94l-6.44-.99q-4.46 10.9-8.42 21.55-3.97 10.66-6.94 22.06 0 .99-.5 2.48-.49 1.48-1.48.99-.99-1.99-1.24-4.71-.25-2.73-.25-4.71 0-20.81 7.43-40.14 2.48-4.96 4.96-4.96 10.41-2.97 21.06-3.47 10.66-.49 22.05-.49 24.78 0 49.07 3.72 24.28 3.71 48.56 3.71 11.9 0 21.81-1.98l-.99-7.93q-5.45 1.49-11.65 1.98-6.19.5-11.64.5-19.33 0-39.9-3.97-20.57-3.96-39.4-9.41-.99-.99-3.96-1.74-2.97-.74-2.97-2.23 0-.99 2.97-1.73t3.96-.74q6.94-.5 13.63-.75t13.63-.25q11.4 0 22.8.25 11.39.25 23.29.25h12.39q6.44 0 12.39-.5l-.99-5.45h-6.45q-23.78 0-47.32-4.46t-47.33-4.46q-20.32 0-35.93 4.96-15.61 4.95-26.76 11.4-11.15 6.44-18.09 12.88t-9.91 9.42l-.99.49q-.5 0-.5-.99 0-.49.5-.99 8.92-17.34 21.8-28.99 12.89-11.65 31.72-17.59 18.83-40.14 38.9-79.79t42.37-78.3q.5-.99 1.99-3.22 1.48-2.23 2.97-2.23.49.49.49.99v.99q0 3.96-.49 5.95-9.42 40.14-27.75 77.31-18.34 37.16-37.67 73.34l9.42-.49q1.49-2.98 7.68-12.89 6.2-9.91 13.38-20.57 7.19-10.65 13.13-19.32 5.95-8.68 7.44-8.68l.49 1.49q0 2.48-2.97 10.9-2.97 8.43-6.94 18.34-3.96 9.91-7.68 18.58-3.72 8.68-5.2 12.15 2.97 0 5.94.24 2.98.25 5.95.25 8.92-17.84 19.08-37.41 10.16-19.58 17.59-39.9 7.44-20.32 10.16-41.13 2.73-20.82-3.22-41.13 0 2.47-1.24 9.91-1.24 7.43-3.22 15.61t-3.96 14.37q-1.99 6.19-3.97 6.19-1.48 0-1.24-1.98.25-1.98.25-2.48 0-12.88 1.74-25.52 1.73-12.63 1.73-25.52 0-17.34-5.45-33.7 0-.49-1.49-4.21t.99-3.72q.99 0 3.47 2.48 4.96 4.96 9.67 13.38 4.7 8.43 8.67 18.09 3.96 9.66 7.43 19.08 3.47 9.41 5.45 15.86 6.45 21.31 10.66 42.86 4.21 21.56 7.43 43.12t6.69 43.36q3.47 21.81 7.93 43.12 4.46 20.81 10.66 40.63 6.19 19.83 15.11 37.67t20.57 32.95q11.64 15.12 27.01 26.52 2.47 2.47 1.73 3.22-.74.74-4.71-1.74m-2.48-48.07 1.49 5.95q.5 2.97-.49 2.73-1-.25-2.23-1.74-1.24-1.49-2.48-3.47t-1.24-2.48q-11.89-21.8-18.83-44.35t-10.91-45.59q-3.96-23.05-6.69-46.59-2.72-23.54-6.44-48.07t-9.66-49.8q-5.95-25.28-16.85-51.54-.5-.99-1.49-3.47t0-2.98q.99 0 2.48 1.49l1.98 1.98q10.9 12.89 19.33 34.2 8.42 21.31 14.87 45.59 6.44 24.28 10.65 48.07t6.69 41.63q3.97 28.25 8.43 59.47t11.39 58.97m-145.69-119.93q14.37 1.49 28.49 3.47 14.13 1.98 28.5 2.98-5.45-26.27-9.42-52.04-3.96-25.77-7.43-52.53-6.45 25.77-17.6 50.05-11.15 24.29-22.54 48.07m163.04 162.55q-9.91-4.46-17.35-8.67-7.43-4.21-12.88-11.65-8.42-11.39-13.13-22.79t-7.68-21.31q-1-3.97-1.74-8.92-.74-4.96.25-4.96 1.98 0 4.95 6.44 2.98 6.45 5.46 10.91 7.43 15.36 18.83 30.97t24.78 25.52q3.96 3.47 2.47 4.46-1.48.99-3.96 0m-292.89-95.15h-1.48q0-1.48.49-2.97.5-1.49.99-2.98 3.97-8.42 7.69-12.63 3.71-4.21 12.14-9.17 4.95-2.97 13.87-5.95 8.92-2.97 14.38-2.97.99 0 2.72.25 1.74.24 1.74 1.73t-5.21 3.97q-5.2 2.47-6.69 3.47-18.83 11.39-27.75 17.34t-12.89 9.91"/><rect width="220.038" height="381.94" x="125.696" y="50.751" fill="none" rx="0" ry="0" transform="translate(510.52 591.47)"/></g><path fill="transparent" stroke="transparent" stroke-width="2.092" d="M425.732 250h648.536v1000H425.732z"/></g></svg>